<svg width="135" height="36" viewBox="0 0 135 36" fill="none" xmlns="http://www.w3.org/2000/svg">
<mask id="mask0_235_6753" style="mask-type:luminance" maskUnits="userSpaceOnUse" x="0" y="0" width="38" height="36">
<path d="M37.8263 0H0V36H37.8263V0Z" fill="white"/>
</mask>
<g mask="url(#mask0_235_6753)">
<path d="M31.5877 31.4518C31.0431 31.8198 30.4145 32.0082 29.7849 32.0234C28.9194 32.0443 28.0541 31.7371 27.4034 31.1208L18.921 23.0469L18.9 23.0269L10.4265 31.0913C9.85192 31.6382 9.1074 31.9425 8.3439 31.991C7.62038 32.0376 6.87886 31.855 6.24927 31.4327L6.23828 31.4251L7.02476 30.6766L14.2121 23.8373C15.5122 22.5999 17.2171 21.9836 18.921 21.9893C20.6109 21.9941 22.2977 22.6094 23.587 23.8373L30.9711 30.8649L31.5877 31.4518Z" fill="#44AABB"/>
<path d="M27.6162 34.1391C26.9726 34.5747 26.2142 34.7659 25.4726 34.7212H25.4686C24.6772 34.6746 23.9056 34.3626 23.309 33.7948L18.9219 29.6196L18.9009 29.5996L14.5428 33.7463C13.9911 34.2713 13.2886 34.5795 12.5591 34.6614H12.5571C11.7566 34.7516 10.9251 34.5691 10.2256 34.0993L10.6603 33.6855L18.9009 25.8438L18.9219 25.8637L27.2814 33.8205L27.6162 34.1391Z" fill="#44AABB"/>
<path d="M22.3962 35.6678C21.3279 35.8856 20.2206 35.9997 19.0844 35.9997C19.0304 35.9997 18.9754 35.9997 18.9215 35.9997C17.7352 35.9883 16.581 35.8523 15.4707 35.605L18.9005 32.3418L18.9215 32.3618L22.3962 35.6678Z" fill="#44AABB"/>
<path d="M22.3962 35.6678L18.9215 32.3608L18.9005 32.3408L15.4707 35.604" fill="#44AABB"/>
<path d="M6.23828 4.5482C6.78293 4.18012 7.41152 3.9918 8.0411 3.97659C8.90654 3.95566 9.77197 4.26287 10.4225 4.87918L18.905 12.953L18.9259 12.973L27.3995 4.90866C27.9741 4.36178 28.7185 4.05743 29.4821 4.00892C30.2056 3.96232 30.9471 4.14493 31.5767 4.56722L31.5877 4.57483L30.8012 5.32334L23.6139 12.1627C22.3138 13.4001 20.6089 14.0164 18.905 14.0107C17.2151 14.0059 15.5282 13.3906 14.2391 12.1627L6.85488 5.13502L6.23828 4.5482Z" fill="#E07F7C"/>
<path d="M10.2109 1.8599C10.8545 1.4243 11.6131 1.23313 12.3546 1.27783H12.3586C13.1501 1.32443 13.9215 1.63639 14.5181 2.2042L18.9052 6.37952L18.9262 6.39949L23.2844 2.25271C23.836 1.7277 24.5386 1.41954 25.2681 1.33775H25.2701C26.0706 1.2474 26.902 1.43001 27.6016 1.89985L27.1669 2.31358L18.9262 10.1554L18.9052 10.1354L10.5457 2.17852L10.2109 1.8599Z" fill="#E07F7C"/>
<path d="M15.4316 0.331933C16.4999 0.114132 17.6073 0 18.7435 0C18.7974 0 18.8524 0 18.9064 0C20.0926 0.0114132 21.2469 0.14742 22.3571 0.394706L18.9274 3.65792L18.9064 3.63795L15.4316 0.331933Z" fill="#E07F7C"/>
<path d="M15.4316 0.332031L18.9064 3.639L18.9274 3.65897L22.3571 0.395755" fill="#E07F7C"/>
<path d="M4.77744 30.2457C4.3907 29.7273 4.19283 29.1291 4.17683 28.5299C4.15485 27.7062 4.47764 26.8826 5.12521 26.2634L13.6087 18.1905L13.6296 18.1705L5.1562 10.1062C4.58157 9.55929 4.26177 8.85072 4.21081 8.12408C4.16184 7.43549 4.35371 6.72977 4.79743 6.13058L4.80542 6.12012L5.59191 6.86863L12.7782 13.7089C14.0784 14.9463 14.7259 16.5689 14.7199 18.1905C14.7149 19.7988 14.0684 21.4043 12.7782 22.6312L5.39404 29.6588L4.77744 30.2457Z" fill="#F0AB4A"/>
<path d="M1.9542 26.4651C1.49651 25.8526 1.29564 25.1307 1.34261 24.425V24.4212C1.39157 23.6679 1.71936 22.9336 2.31597 22.3658L6.7031 18.1905L6.72409 18.1705L2.36694 14.0228C1.8153 13.4978 1.4915 12.8292 1.40557 12.1349V12.133C1.31063 11.3711 1.50251 10.5798 1.99618 9.91406L2.4309 10.3278L10.6705 18.1705L10.6495 18.1905L2.28899 26.1465L1.9542 26.4651Z" fill="#F0AB4A"/>
<path d="M0.348772 21.4974C0.119922 20.4806 0 19.4268 0 18.3454C0 18.2941 0 18.2418 0 18.1904C0.0119922 17.0614 0.154899 15.9629 0.414729 14.9062L3.84348 18.1705L3.8225 18.1904L0.348772 21.4974Z" fill="#F0AB4A"/>
<path d="M0.349609 21.4974L3.82433 18.1904L3.84533 18.1705L0.416565 14.9062" fill="#F0AB4A"/>
</g>
<path d="M40.293 18.0117C40.293 12.5094 44.6678 9 49.5292 9C54.3905 9 57.1297 11.9223 57.8453 14.7238L54.5174 15.7236C54.0838 14.0662 52.6737 12.241 49.5292 12.241C46.8182 12.241 43.9521 14.093 43.9521 18.0117C43.9521 21.6889 46.6631 23.712 49.5821 23.712C52.6772 23.712 54.1896 21.7896 54.6725 20.1791L57.9722 21.1286C57.2813 23.7825 54.6725 26.9966 49.5785 26.9966C44.4844 26.9966 40.293 23.5141 40.293 18.0117Z" fill="white"/>
<path d="M62.7833 19.7401L65.8786 19.3006C66.5941 19.2033 66.8268 18.8611 66.8268 18.4484C66.8268 17.5962 66.1359 16.8916 64.7011 16.8916C63.2662 16.8916 62.3991 17.7941 62.2968 18.8409L59.2791 18.2337C59.4836 16.3582 61.2992 14.2881 64.6799 14.2881C68.6706 14.2881 70.1547 16.432 70.1547 18.8409V24.7324C70.1547 25.3666 70.2323 26.2187 70.3098 26.6314H67.1864C67.1089 26.316 67.0595 25.6584 67.0595 25.1954C66.4214 26.1449 65.2158 26.9736 63.3509 26.9736C60.6646 26.9736 59.0254 25.2458 59.0254 23.3703C59.0254 21.2264 60.6893 20.0353 62.7869 19.7434L62.7833 19.7401ZM66.8268 21.7867V21.2499L63.9855 21.6625C63.1147 21.7833 62.4238 22.2463 62.4238 23.1723C62.4238 23.8803 62.9595 24.5613 64.063 24.5613C65.4943 24.5613 66.8268 23.9037 66.8268 21.7867Z" fill="white"/>
<path d="M73.0713 26.6309V9H76.4237V15.9651C76.9879 15.113 78.3698 14.3346 80.2381 14.3346C83.9221 14.3346 86.0478 17.0388 86.0478 20.5951C86.0478 24.1515 83.6929 26.9262 80.1113 26.9262C78.3698 26.9262 77.0407 26.1948 76.3745 25.1715V26.6343H73.0748L73.0713 26.6309ZM79.519 17.23C77.8057 17.23 76.3709 18.4244 76.3709 20.6153C76.3709 22.8061 77.8022 24.024 79.519 24.024C81.2358 24.024 82.6424 22.8061 82.6424 20.6153C82.6424 18.4244 81.2605 17.23 79.519 17.23Z" fill="white"/>
<path d="M91.2159 19.7401L94.3111 19.3006C95.0267 19.2033 95.2594 18.8611 95.2594 18.4484C95.2594 17.5962 94.5684 16.8916 93.1336 16.8916C91.6989 16.8916 90.8317 17.7941 90.7295 18.8409L87.7118 18.2337C87.9162 16.3582 89.7318 14.2881 93.1125 14.2881C97.1032 14.2881 98.5872 16.432 98.5872 18.8409V24.7324C98.5872 25.3666 98.6649 26.2187 98.7424 26.6314H95.619C95.5415 26.316 95.4921 25.6584 95.4921 25.1954C94.854 26.1449 93.6484 26.9736 91.7834 26.9736C89.0973 26.9736 87.458 25.2458 87.458 23.3703C87.458 21.2264 89.1219 20.0353 91.2194 19.7434L91.2159 19.7401ZM95.2594 21.7867V21.2499L92.4181 21.6625C91.5472 21.7833 90.8563 22.2463 90.8563 23.1723C90.8563 23.8803 91.3922 24.5613 92.4956 24.5613C93.9268 24.5613 95.2594 23.9037 95.2594 21.7867Z" fill="white"/>
<path d="M101.497 26.6309V9H104.899V26.6309H101.497Z" fill="white"/>
<path d="M120.283 20.6421C120.283 24.3192 117.442 26.9999 113.68 26.9999C109.918 26.9999 107.077 24.3226 107.077 20.6421C107.077 16.9615 109.918 14.2842 113.68 14.2842C117.442 14.2842 120.283 16.938 120.283 20.6421ZM116.882 20.6421C116.882 18.3774 115.344 17.2333 113.684 17.2333C112.023 17.2333 110.487 18.3774 110.487 20.6421C110.487 22.9067 112.02 24.0508 113.684 24.0508C115.347 24.0508 116.882 22.9067 116.882 20.6421Z" fill="white"/>
<path d="M130.544 25.3426C129.854 26.4632 128.394 26.9497 127.065 26.9497C124.019 26.9497 122.281 24.8326 122.281 22.2257V14.6533H125.684V21.5681C125.684 22.9068 126.399 23.9804 127.985 23.9804C129.571 23.9804 130.365 23.0075 130.365 21.6185V14.6533H133.767V24.4669C133.767 25.3929 133.845 26.2183 133.894 26.6343H130.643C130.59 26.3927 130.541 25.8324 130.541 25.3426H130.544Z" fill="white"/>
</svg>
